<svg class="diagram-root" style="background: #f5f6f6" xmlns="http://www.w3.org/2000/svg" xmlns:xlink="http://www.w3.org/1999/xlink"><style>.diagram-root { font-family: "Helvetica Neue", sans-serif; font-size: 12px; } .t { overflow: visible; } .t-bg { y: 40; fill: #fff;   } .th { fill: #005aa0;   } .tht { fill: #fff; font-size: 14px;  } .tf { fill: #323c46; overflow: visible; } .tf.pk { fill: #005aa0; font-weight: bold; } .tf.fk { font-weight: bold; } .ty { fill: #adb1b5; font-weight: normal; text-anchor: end; } .r { fill: transparent; stroke: #c3c3c3; stroke-width: 1; } .l { stroke: 1; } .i { fill: #c2c7ce; stroke: #c2c7ce; } .i.ix { fill: #afb3b6; stroke: #000; } .fa { fill: transparent; overflow: visible; } .fa .bg.hover { fill: #f7f7f7; } .c { cy: 12; r: 4; stroke: #d2d2dc; fill: #d2d2dc; } .hr { fill: transparent; stroke: #323c46; stroke-opacity: 0.035; stroke-width: 13; } .dc { stroke: #fa5a3c; fill: #fa5a3c; } .x { stroke: white; stroke-width: 1; } .hl .th { fill: #1b9bff; } .hl .tht {  } .fhl .bg { fill: #e7f4ff; } .fhls .bg {  } .r.hl { stroke: #1b9bff; } .dim { opacity: 0.25; }</style><g class="drawing-wrapper" transform="translate(91.4444444444445, -20.00000000000003) scale(1,1)"><g class="rs"><path d="M 248.89 244.22 m -1, 0 a 1,1 0 1,0 2,0 a 1,1 0 1,0 -2,0 M 248.89 244.22 m -0.5, 0 a 0.5,0.5 0 1,0 1,0 a 0.5,0.5 0 1,0 -1,0  M248.89 244.22 L248.89 244.22 236.89 244.22 M 248.89 250.22 m -1, 0 a 1,1 0 1,0 2,0 a 1,1 0 1,0 -2,0 M 248.89 250.22 m -0.5, 0 a 0.5,0.5 0 1,0 1,0 a 0.5,0.5 0 1,0 -1,0  M248.89 250.22 L248.89 250.22 241.89 244.22 248.89 238.22 M 248.89 238.22 m -1, 0 a 1,1 0 1,0 2,0 a 1,1 0 1,0 -2,0 M 248.89 238.22 m -0.5, 0 a 0.5,0.5 0 1,0 1,0 a 0.5,0.5 0 1,0 -1,0  M236.89 244.22 Q 189.73 244.22, 142.57 175.61 T 48.24 107 M 36.24 107 m -1, 0 a 1,1 0 1,0 2,0 a 1,1 0 1,0 -2,0 M 36.24 107 m -0.5, 0 a 0.5,0.5 0 1,0 1,0 a 0.5,0.5 0 1,0 -1,0  M36.24 107 L36.24 107 48.24 107 M42.24 113 L42.24 113 42.24 101" id="h3559049542" class="r"></path><path d="M 248.89 269.22 m -1, 0 a 1,1 0 1,0 2,0 a 1,1 0 1,0 -2,0 M 248.89 269.22 m -0.5, 0 a 0.5,0.5 0 1,0 1,0 a 0.5,0.5 0 1,0 -1,0  M248.89 269.22 L248.89 269.22 236.89 269.22 M 248.89 275.22 m -1, 0 a 1,1 0 1,0 2,0 a 1,1 0 1,0 -2,0 M 248.89 275.22 m -0.5, 0 a 0.5,0.5 0 1,0 1,0 a 0.5,0.5 0 1,0 -1,0  M248.89 275.22 L248.89 275.22 241.89 269.22 248.89 263.22 M 248.89 263.22 m -1, 0 a 1,1 0 1,0 2,0 a 1,1 0 1,0 -2,0 M 248.89 263.22 m -0.5, 0 a 0.5,0.5 0 1,0 1,0 a 0.5,0.5 0 1,0 -1,0  M236.89 269.22 Q 189.31 269.22, 141.73 321.45 T 46.58 373.67 M 34.58 373.67 m -1, 0 a 1,1 0 1,0 2,0 a 1,1 0 1,0 -2,0 M 34.58 373.67 m -0.5, 0 a 0.5,0.5 0 1,0 1,0 a 0.5,0.5 0 1,0 -1,0  M34.58 373.67 L34.58 373.67 46.58 373.67 M40.58 379.67 L40.58 379.67 40.58 367.67" id="h3089693579" class="r"></path><path d="M 490 220.89 m -1, 0 a 1,1 0 1,0 2,0 a 1,1 0 1,0 -2,0 M 490 220.89 m -0.5, 0 a 0.5,0.5 0 1,0 1,0 a 0.5,0.5 0 1,0 -1,0  M490 220.89 L490 220.89 478 220.89 M 490 226.89 m -1, 0 a 1,1 0 1,0 2,0 a 1,1 0 1,0 -2,0 M 490 226.89 m -0.5, 0 a 0.5,0.5 0 1,0 1,0 a 0.5,0.5 0 1,0 -1,0  M490 226.89 L490 226.89 483 220.89 490 214.89 M 490 214.89 m -1, 0 a 1,1 0 1,0 2,0 a 1,1 0 1,0 -2,0 M 490 214.89 m -0.5, 0 a 0.5,0.5 0 1,0 1,0 a 0.5,0.5 0 1,0 -1,0  M478 220.89 Q 370.56 220.89, 263.12 163.95 T 48.24 107 M 36.24 107 m -1, 0 a 1,1 0 1,0 2,0 a 1,1 0 1,0 -2,0 M 36.24 107 m -0.5, 0 a 0.5,0.5 0 1,0 1,0 a 0.5,0.5 0 1,0 -1,0  M36.24 107 L36.24 107 48.24 107 M42.24 113 L42.24 113 42.24 101" id="h321352475" class="r"></path></g><g class="hrs"></g><g class="ts"><svg width="104.02" height="100" x="-67.78" y="50" id="h41485699" class="t"><rect height="40" width="104.02" class="th"></rect><text x="13" y="25" class="tht">Regions</text><rect height="60" width="104.02" class="t-bg"></rect><text x="13" y="61" class="tf pk">id<tspan x="91.02" class="ty">serial</tspan></text><path d="M7,14A2,2 0 0,1 5,12A2,2 0 0,1 7,10A2,2 0 0,1 9,12A2,2 0 0,1 7,14M12.65,10C11.83,7.67 9.61,6 7, 6A6, 6 0 0, 0 1, 12A6, 6 0 0, 0 7, 18C9.61, 18 11.83, 16.33 12.65, 14H17V18H21V14H23V10H12.65Z" class="i pk" transform="translate(42.344218749999996, 48) scale(0.65)"></path><text x="13" y="86" class="tf">name<tspan x="91.02" class="ty">text</tspan></text></svg><svg width="104.02" height="100" x="-69.44" y="316.67" id="h1234641711" class="t"><rect height="40" width="104.02" class="th"></rect><text x="13" y="25" class="tht">Categories</text><rect height="60" width="104.02" class="t-bg"></rect><text x="13" y="61" class="tf pk">id<tspan x="91.02" class="ty">serial</tspan></text><path d="M7,14A2,2 0 0,1 5,12A2,2 0 0,1 7,10A2,2 0 0,1 9,12A2,2 0 0,1 7,14M12.65,10C11.83,7.67 9.61,6 7, 6A6, 6 0 0, 0 1, 12A6, 6 0 0, 0 7, 18C9.61, 18 11.83, 16.33 12.65, 14H17V18H21V14H23V10H12.65Z" class="i pk" transform="translate(42.344218749999996, 48) scale(0.65)"></path><text x="13" y="86" class="tf">name<tspan x="91.02" class="ty">text</tspan></text></svg><svg width="108.04" height="225" x="248.89" y="62.22" id="h1611266215" class="t"><rect height="40" width="108.04" class="th"></rect><text x="13" y="25" class="tht">Posts</text><rect height="185" width="108.04" class="t-bg"></rect><text x="13" y="61" class="tf pk">id<tspan x="95.04" class="ty">serial</tspan></text><path d="M7,14A2,2 0 0,1 5,12A2,2 0 0,1 7,10A2,2 0 0,1 9,12A2,2 0 0,1 7,14M12.65,10C11.83,7.67 9.61,6 7, 6A6, 6 0 0, 0 1, 12A6, 6 0 0, 0 7, 18C9.61, 18 11.83, 16.33 12.65, 14H17V18H21V14H23V10H12.65Z" class="i pk" transform="translate(46.364218750000006, 48) scale(0.65)"></path><text x="13" y="86" class="tf">title<tspan x="95.04" class="ty">text</tspan></text><text x="13" y="111" class="tf">text<tspan x="95.04" class="ty">text</tspan></text><text x="13" y="136" class="tf">location<tspan x="95.04" class="ty">text</tspan></text><text x="13" y="161" class="tf">user_id</text><text x="13" y="186" class="tf fk">region_id</text><text x="13" y="211" class="tf fk">category_id</text></svg><svg width="222.53" height="150" x="490" y="88.89" id="h3889921393" class="t"><rect height="40" width="222.53" class="th"></rect><text x="13" y="25" class="tht">Users</text><rect height="110" width="222.53" class="t-bg"></rect><text x="13" y="61" class="tf pk">id<tspan x="209.53" class="ty">serial</tspan></text><path d="M7,14A2,2 0 0,1 5,12A2,2 0 0,1 7,10A2,2 0 0,1 9,12A2,2 0 0,1 7,14M12.65,10C11.83,7.67 9.61,6 7, 6A6, 6 0 0, 0 1, 12A6, 6 0 0, 0 7, 18C9.61, 18 11.83, 16.33 12.65, 14H17V18H21V14H23V10H12.65Z" class="i pk" transform="translate(160.85421875, 48) scale(0.65)"></path><text x="13" y="86" class="tf">username<tspan x="209.53" class="ty">text</tspan></text><text x="13" y="111" class="tf">encrypted_password<tspan x="209.53" class="ty">BINARY(64)</tspan></text><text x="13" y="136" class="tf fk">preferred_region_id</text></svg></g></g><text class="qdbd-link" x="10" y="20">www.quickdatabasediagrams.com</text></svg>