<svg class="diagram-root" style="background: #f5f6f6" xmlns="http://www.w3.org/2000/svg" xmlns:xlink="http://www.w3.org/1999/xlink"><style>.diagram-root { font-family: "Helvetica Neue", sans-serif; font-size: 12px; } .t { overflow: visible; } .t-bg { y: 40; fill: #fff;   } .th { fill: #005aa0;   } .tht { fill: #fff; font-size: 14px;  } .tf { fill: #323c46; overflow: visible; } .tf.pk { fill: #005aa0; font-weight: bold; } .tf.fk { font-weight: bold; } .ty { fill: #adb1b5; font-weight: normal; text-anchor: end; } .r { fill: transparent; stroke: #c3c3c3; stroke-width: 1; } .l { stroke: 1; } .i { fill: #c2c7ce; stroke: #c2c7ce; } .i.ix { fill: #afb3b6; stroke: #000; } .fa { fill: transparent; overflow: visible; } .fa .bg.hover { fill: #f7f7f7; } .c { cy: 12; r: 4; stroke: #d2d2dc; fill: #d2d2dc; } .hr { fill: transparent; stroke: #323c46; stroke-opacity: 0.035; stroke-width: 13; } .dc { stroke: #fa5a3c; fill: #fa5a3c; } .x { stroke: white; stroke-width: 1; } .hl .th { fill: #1b9bff; } .hl .tht {  } .fhl .bg { fill: #e7f4ff; } .fhls .bg {  } .r.hl { stroke: #1b9bff; } .dim { opacity: 0.25; }</style><g class="drawing-wrapper" transform="translate(2, 18) scale(1,1)"><g class="rs"><path d="M 311.02 112 m -1, 0 a 1,1 0 1,0 2,0 a 1,1 0 1,0 -2,0 M 311.02 112 m -0.5, 0 a 0.5,0.5 0 1,0 1,0 a 0.5,0.5 0 1,0 -1,0  M311.02 112 L311.02 112 323.02 112 M 311.02 118 m -1, 0 a 1,1 0 1,0 2,0 a 1,1 0 1,0 -2,0 M 311.02 118 m -0.5, 0 a 0.5,0.5 0 1,0 1,0 a 0.5,0.5 0 1,0 -1,0  M311.02 118 L311.02 118 318.02 112 311.02 106 M 311.02 106 m -1, 0 a 1,1 0 1,0 2,0 a 1,1 0 1,0 -2,0 M 311.02 106 m -0.5, 0 a 0.5,0.5 0 1,0 1,0 a 0.5,0.5 0 1,0 -1,0  M323.02 112 C 373.02 112, 474.414 87, 154.03 87 M 142.03 87 m -1, 0 a 1,1 0 1,0 2,0 a 1,1 0 1,0 -2,0 M 142.03 87 m -0.5, 0 a 0.5,0.5 0 1,0 1,0 a 0.5,0.5 0 1,0 -1,0  M142.03 87 L142.03 87 154.03 87 M148.03 93 L148.03 93 148.03 81" id="h590229396" class="r"></path><path d="M 311.02 137 m -1, 0 a 1,1 0 1,0 2,0 a 1,1 0 1,0 -2,0 M 311.02 137 m -0.5, 0 a 0.5,0.5 0 1,0 1,0 a 0.5,0.5 0 1,0 -1,0  M311.02 137 L311.02 137 323.02 137 M 311.02 143 m -1, 0 a 1,1 0 1,0 2,0 a 1,1 0 1,0 -2,0 M 311.02 143 m -0.5, 0 a 0.5,0.5 0 1,0 1,0 a 0.5,0.5 0 1,0 -1,0  M311.02 143 L311.02 143 318.02 137 311.02 131 M 311.02 131 m -1, 0 a 1,1 0 1,0 2,0 a 1,1 0 1,0 -2,0 M 311.02 131 m -0.5, 0 a 0.5,0.5 0 1,0 1,0 a 0.5,0.5 0 1,0 -1,0  M323.02 137 Q 338.77 137, 354.51 113 T 386 89 M 398 89 m -1, 0 a 1,1 0 1,0 2,0 a 1,1 0 1,0 -2,0 M 398 89 m -0.5, 0 a 0.5,0.5 0 1,0 1,0 a 0.5,0.5 0 1,0 -1,0  M398 89 L398 89 386 89 M392 95 L392 95 392 83" id="h3883713910" class="r"></path><path d="M 396.02 393 m -1, 0 a 1,1 0 1,0 2,0 a 1,1 0 1,0 -2,0 M 396.02 393 m -0.5, 0 a 0.5,0.5 0 1,0 1,0 a 0.5,0.5 0 1,0 -1,0  M396.02 393 L396.02 393 408.02 393 M 396.02 399 m -1, 0 a 1,1 0 1,0 2,0 a 1,1 0 1,0 -2,0 M 396.02 399 m -0.5, 0 a 0.5,0.5 0 1,0 1,0 a 0.5,0.5 0 1,0 -1,0  M396.02 399 L396.02 399 403.02 393 396.02 387 M 396.02 387 m -1, 0 a 1,1 0 1,0 2,0 a 1,1 0 1,0 -2,0 M 396.02 387 m -0.5, 0 a 0.5,0.5 0 1,0 1,0 a 0.5,0.5 0 1,0 -1,0  M408.02 393 C 458.02 393, 509.02 87, 323.02 87 M 311.02 87 m -1, 0 a 1,1 0 1,0 2,0 a 1,1 0 1,0 -2,0 M 311.02 87 m -0.5, 0 a 0.5,0.5 0 1,0 1,0 a 0.5,0.5 0 1,0 -1,0  M311.02 87 L311.02 87 323.02 87 M317.02 93 L317.02 93 317.02 81" id="h746925263" class="r"></path><path d="M 292 418 m -1, 0 a 1,1 0 1,0 2,0 a 1,1 0 1,0 -2,0 M 292 418 m -0.5, 0 a 0.5,0.5 0 1,0 1,0 a 0.5,0.5 0 1,0 -1,0  M292 418 L292 418 280 418 M 292 424 m -1, 0 a 1,1 0 1,0 2,0 a 1,1 0 1,0 -2,0 M 292 424 m -0.5, 0 a 0.5,0.5 0 1,0 1,0 a 0.5,0.5 0 1,0 -1,0  M292 424 L292 424 285 418 292 412 M 292 412 m -1, 0 a 1,1 0 1,0 2,0 a 1,1 0 1,0 -2,0 M 292 412 m -0.5, 0 a 0.5,0.5 0 1,0 1,0 a 0.5,0.5 0 1,0 -1,0  M280 418 Q 253.51 418, 227.02 399.5 T 174.03 381 M 162.03 381 m -1, 0 a 1,1 0 1,0 2,0 a 1,1 0 1,0 -2,0 M 162.03 381 m -0.5, 0 a 0.5,0.5 0 1,0 1,0 a 0.5,0.5 0 1,0 -1,0  M162.03 381 L162.03 381 174.03 381 M168.03 387 L168.03 387 168.03 375" id="h3020454270" class="r"></path></g><g class="hrs"></g><g class="ts"><svg width="112.03" height="125" x="30" y="30" id="h16875077" class="t"><rect height="40" width="112.03" class="th"></rect><text x="13" y="25" class="tht">Doctors</text><rect height="85" width="112.03" class="t-bg"></rect><text x="13" y="61" class="tf pk">id<tspan x="99.03" class="ty">serial</tspan></text><path d="M7,14A2,2 0 0,1 5,12A2,2 0 0,1 7,10A2,2 0 0,1 9,12A2,2 0 0,1 7,14M12.65,10C11.83,7.67 9.61,6 7, 6A6, 6 0 0, 0 1, 12A6, 6 0 0, 0 7, 18C9.61, 18 11.83, 16.33 12.65, 14H17V18H21V14H23V10H12.65Z" class="i pk" transform="translate(50.35421875, 48) scale(0.65)"></path><text x="13" y="86" class="tf">name<tspan x="99.03" class="ty">text</tspan></text><text x="13" y="111" class="tf">specialty<tspan x="99.03" class="ty">text</tspan></text></svg><svg width="106.02" height="150" x="205" y="30" id="h3280351983" class="t"><rect height="40" width="106.02" class="th"></rect><text x="13" y="25" class="tht">Visits</text><rect height="110" width="106.02" class="t-bg"></rect><text x="13" y="61" class="tf pk">id<tspan x="93.02" class="ty">Serial</tspan></text><path d="M7,14A2,2 0 0,1 5,12A2,2 0 0,1 7,10A2,2 0 0,1 9,12A2,2 0 0,1 7,14M12.65,10C11.83,7.67 9.61,6 7, 6A6, 6 0 0, 0 1, 12A6, 6 0 0, 0 7, 18C9.61, 18 11.83, 16.33 12.65, 14H17V18H21V14H23V10H12.65Z" class="i pk" transform="translate(42.340312499999996, 48) scale(0.65)"></path><text x="13" y="86" class="tf fk">doctor_id</text><text x="13" y="111" class="tf fk">patient_id</text><text x="13" y="136" class="tf">date</text></svg><svg width="117.37" height="150" x="398" y="32" id="h3676580549" class="t"><rect height="40" width="117.37" class="th"></rect><text x="13" y="25" class="tht">Patients</text><rect height="110" width="117.37" class="t-bg"></rect><text x="13" y="61" class="tf pk">id<tspan x="104.37" class="ty">serial</tspan></text><path d="M7,14A2,2 0 0,1 5,12A2,2 0 0,1 7,10A2,2 0 0,1 9,12A2,2 0 0,1 7,14M12.65,10C11.83,7.67 9.61,6 7, 6A6, 6 0 0, 0 1, 12A6, 6 0 0, 0 7, 18C9.61, 18 11.83, 16.33 12.65, 14H17V18H21V14H23V10H12.65Z" class="i pk" transform="translate(55.694218750000005, 48) scale(0.65)"></path><text x="13" y="86" class="tf">name<tspan x="104.37" class="ty">text</tspan></text><text x="13" y="111" class="tf">insurance<tspan x="104.37" class="ty">text</tspan></text><text x="13" y="136" class="tf">birthday<tspan x="104.37" class="ty">date</tspan></text></svg><svg width="104.03" height="125" x="58" y="324" id="h1794948770" class="t"><rect height="40" width="104.03" class="th"></rect><text x="13" y="25" class="tht">Diseases</text><rect height="85" width="104.03" class="t-bg"></rect><text x="13" y="61" class="tf pk">id<tspan x="91.03" class="ty">serial</tspan></text><path d="M7,14A2,2 0 0,1 5,12A2,2 0 0,1 7,10A2,2 0 0,1 9,12A2,2 0 0,1 7,14M12.65,10C11.83,7.67 9.61,6 7, 6A6, 6 0 0, 0 1, 12A6, 6 0 0, 0 7, 18C9.61, 18 11.83, 16.33 12.65, 14H17V18H21V14H23V10H12.65Z" class="i pk" transform="translate(42.35421875, 48) scale(0.65)"></path><text x="13" y="86" class="tf">name<tspan x="91.03" class="ty">text</tspan></text><text x="13" y="111" class="tf">description</text></svg><svg width="104.02" height="150" x="292" y="311" id="h3047656030" class="t"><rect height="40" width="104.02" class="th"></rect><text x="13" y="25" class="tht">Diagnoses</text><rect height="110" width="104.02" class="t-bg"></rect><text x="13" y="61" class="tf pk">id<tspan x="91.02" class="ty">serial</tspan></text><path d="M7,14A2,2 0 0,1 5,12A2,2 0 0,1 7,10A2,2 0 0,1 9,12A2,2 0 0,1 7,14M12.65,10C11.83,7.67 9.61,6 7, 6A6, 6 0 0, 0 1, 12A6, 6 0 0, 0 7, 18C9.61, 18 11.83, 16.33 12.65, 14H17V18H21V14H23V10H12.65Z" class="i pk" transform="translate(42.344218749999996, 48) scale(0.65)"></path><text x="13" y="86" class="tf fk">visit_id</text><text x="13" y="111" class="tf fk">disease_id</text><text x="13" y="136" class="tf">notes<tspan x="91.02" class="ty">text</tspan></text></svg></g></g><text class="qdbd-link" x="10" y="20">www.quickdatabasediagrams.com</text></svg>