<svg class="diagram-root" style="background: #f5f6f6" xmlns="http://www.w3.org/2000/svg" xmlns:xlink="http://www.w3.org/1999/xlink"><style>.diagram-root { font-family: "Helvetica Neue", sans-serif; font-size: 12px; } .t { overflow: visible; } .t-bg { y: 40; fill: #fff;   } .th { fill: #005aa0;   } .tht { fill: #fff; font-size: 14px;  } .tf { fill: #323c46; overflow: visible; } .tf.pk { fill: #005aa0; font-weight: bold; } .tf.fk { font-weight: bold; } .ty { fill: #adb1b5; font-weight: normal; text-anchor: end; } .r { fill: transparent; stroke: #c3c3c3; stroke-width: 1; } .l { stroke: 1; } .i { fill: #c2c7ce; stroke: #c2c7ce; } .i.ix { fill: #afb3b6; stroke: #000; } .fa { fill: transparent; overflow: visible; } .fa .bg.hover { fill: #f7f7f7; } .c { cy: 12; r: 4; stroke: #d2d2dc; fill: #d2d2dc; } .hr { fill: transparent; stroke: #323c46; stroke-opacity: 0.035; stroke-width: 13; } .dc { stroke: #fa5a3c; fill: #fa5a3c; } .x { stroke: white; stroke-width: 1; } .hl .th { fill: #1b9bff; } .hl .tht {  } .fhl .bg { fill: #e7f4ff; } .fhls .bg {  } .r.hl { stroke: #1b9bff; } .dim { opacity: 0.25; }</style><g class="drawing-wrapper" transform="translate(2, 18) scale(1,1)"><g class="rs"><path d="M 30 436 m -1, 0 a 1,1 0 1,0 2,0 a 1,1 0 1,0 -2,0 M 30 436 m -0.5, 0 a 0.5,0.5 0 1,0 1,0 a 0.5,0.5 0 1,0 -1,0  M30 436 L30 436 18 436 M 30 442 m -1, 0 a 1,1 0 1,0 2,0 a 1,1 0 1,0 -2,0 M 30 442 m -0.5, 0 a 0.5,0.5 0 1,0 1,0 a 0.5,0.5 0 1,0 -1,0  M30 442 L30 442 23 436 30 430 M 30 430 m -1, 0 a 1,1 0 1,0 2,0 a 1,1 0 1,0 -2,0 M 30 430 m -0.5, 0 a 0.5,0.5 0 1,0 1,0 a 0.5,0.5 0 1,0 -1,0  M18 436 C -32 436, -32 87, 18 87 M 30 87 m -1, 0 a 1,1 0 1,0 2,0 a 1,1 0 1,0 -2,0 M 30 87 m -0.5, 0 a 0.5,0.5 0 1,0 1,0 a 0.5,0.5 0 1,0 -1,0  M30 87 L30 87 18 87 M24 93 L24 93 24 81" id="h3857304036" class="r"></path><path d="M 348 169 m -1, 0 a 1,1 0 1,0 2,0 a 1,1 0 1,0 -2,0 M 348 169 m -0.5, 0 a 0.5,0.5 0 1,0 1,0 a 0.5,0.5 0 1,0 -1,0  M348 169 L348 169 336 169 M 348 175 m -1, 0 a 1,1 0 1,0 2,0 a 1,1 0 1,0 -2,0 M 348 175 m -0.5, 0 a 0.5,0.5 0 1,0 1,0 a 0.5,0.5 0 1,0 -1,0  M348 175 L348 175 341 169 348 163 M 348 163 m -1, 0 a 1,1 0 1,0 2,0 a 1,1 0 1,0 -2,0 M 348 163 m -0.5, 0 a 0.5,0.5 0 1,0 1,0 a 0.5,0.5 0 1,0 -1,0  M336 169 Q 288.51 169, 241.01 128 T 146.02 87 M 134.02 87 m -1, 0 a 1,1 0 1,0 2,0 a 1,1 0 1,0 -2,0 M 134.02 87 m -0.5, 0 a 0.5,0.5 0 1,0 1,0 a 0.5,0.5 0 1,0 -1,0  M134.02 87 L134.02 87 146.02 87 M140.02 93 L140.02 93 140.02 81" id="h1752145770" class="r"></path><path d="M 339.22 324.22 m -1, 0 a 1,1 0 1,0 2,0 a 1,1 0 1,0 -2,0 M 339.22 324.22 m -0.5, 0 a 0.5,0.5 0 1,0 1,0 a 0.5,0.5 0 1,0 -1,0  M339.22 324.22 L339.22 324.22 327.22 324.22 M 339.22 330.22 m -1, 0 a 1,1 0 1,0 2,0 a 1,1 0 1,0 -2,0 M 339.22 330.22 m -0.5, 0 a 0.5,0.5 0 1,0 1,0 a 0.5,0.5 0 1,0 -1,0  M339.22 330.22 L339.22 330.22 332.22 324.22 339.22 318.22 M 339.22 318.22 m -1, 0 a 1,1 0 1,0 2,0 a 1,1 0 1,0 -2,0 M 339.22 318.22 m -0.5, 0 a 0.5,0.5 0 1,0 1,0 a 0.5,0.5 0 1,0 -1,0  M327.22 324.22 Q 281.92 324.22, 236.62 205.61 T 146.02 87 M 134.02 87 m -1, 0 a 1,1 0 1,0 2,0 a 1,1 0 1,0 -2,0 M 134.02 87 m -0.5, 0 a 0.5,0.5 0 1,0 1,0 a 0.5,0.5 0 1,0 -1,0  M134.02 87 L134.02 87 146.02 87 M140.02 93 L140.02 93 140.02 81" id="h4125972419" class="r"></path><path d="M 339.22 349.22 m -1, 0 a 1,1 0 1,0 2,0 a 1,1 0 1,0 -2,0 M 339.22 349.22 m -0.5, 0 a 0.5,0.5 0 1,0 1,0 a 0.5,0.5 0 1,0 -1,0  M339.22 349.22 L339.22 349.22 327.22 349.22 M 339.22 355.22 m -1, 0 a 1,1 0 1,0 2,0 a 1,1 0 1,0 -2,0 M 339.22 355.22 m -0.5, 0 a 0.5,0.5 0 1,0 1,0 a 0.5,0.5 0 1,0 -1,0  M339.22 355.22 L339.22 355.22 332.22 349.22 339.22 343.22 M 339.22 343.22 m -1, 0 a 1,1 0 1,0 2,0 a 1,1 0 1,0 -2,0 M 339.22 343.22 m -0.5, 0 a 0.5,0.5 0 1,0 1,0 a 0.5,0.5 0 1,0 -1,0  M327.22 349.22 Q 281.92 349.22, 236.62 218.11 T 146.02 87 M 134.02 87 m -1, 0 a 1,1 0 1,0 2,0 a 1,1 0 1,0 -2,0 M 134.02 87 m -0.5, 0 a 0.5,0.5 0 1,0 1,0 a 0.5,0.5 0 1,0 -1,0  M134.02 87 L134.02 87 146.02 87 M140.02 93 L140.02 93 140.02 81" id="h4200024611" class="r"></path><path d="M 506.63 449.22 m -1, 0 a 1,1 0 1,0 2,0 a 1,1 0 1,0 -2,0 M 506.63 449.22 m -0.5, 0 a 0.5,0.5 0 1,0 1,0 a 0.5,0.5 0 1,0 -1,0  M506.63 449.22 L506.63 449.22 518.63 449.22 M 506.63 455.22 m -1, 0 a 1,1 0 1,0 2,0 a 1,1 0 1,0 -2,0 M 506.63 455.22 m -0.5, 0 a 0.5,0.5 0 1,0 1,0 a 0.5,0.5 0 1,0 -1,0  M506.63 455.22 L506.63 455.22 513.63 449.22 506.63 443.22 M 506.63 443.22 m -1, 0 a 1,1 0 1,0 2,0 a 1,1 0 1,0 -2,0 M 506.63 443.22 m -0.5, 0 a 0.5,0.5 0 1,0 1,0 a 0.5,0.5 0 1,0 -1,0  M518.63 449.22 Q 541.39 449.22, 564.15 460.89 T 609.67 472.56 M 621.67 472.56 m -1, 0 a 1,1 0 1,0 2,0 a 1,1 0 1,0 -2,0 M 621.67 472.56 m -0.5, 0 a 0.5,0.5 0 1,0 1,0 a 0.5,0.5 0 1,0 -1,0  M621.67 472.56 L621.67 472.56 609.67 472.56 M615.67 478.56 L615.67 478.56 615.67 466.56" id="h2372472583" class="r"></path><path d="M 339.22 474.22 m -1, 0 a 1,1 0 1,0 2,0 a 1,1 0 1,0 -2,0 M 339.22 474.22 m -0.5, 0 a 0.5,0.5 0 1,0 1,0 a 0.5,0.5 0 1,0 -1,0  M339.22 474.22 L339.22 474.22 327.22 474.22 M 339.22 480.22 m -1, 0 a 1,1 0 1,0 2,0 a 1,1 0 1,0 -2,0 M 339.22 480.22 m -0.5, 0 a 0.5,0.5 0 1,0 1,0 a 0.5,0.5 0 1,0 -1,0  M339.22 480.22 L339.22 480.22 332.22 474.22 339.22 468.22 M 339.22 468.22 m -1, 0 a 1,1 0 1,0 2,0 a 1,1 0 1,0 -2,0 M 339.22 468.22 m -0.5, 0 a 0.5,0.5 0 1,0 1,0 a 0.5,0.5 0 1,0 -1,0  M327.22 474.22 Q 283.17 474.22, 239.12 371.61 T 151.02 269 M 139.02 269 m -1, 0 a 1,1 0 1,0 2,0 a 1,1 0 1,0 -2,0 M 139.02 269 m -0.5, 0 a 0.5,0.5 0 1,0 1,0 a 0.5,0.5 0 1,0 -1,0  M139.02 269 L139.02 269 151.02 269 M145.02 275 L145.02 275 145.02 263" id="h1334428857" class="r"></path><path d="M 339.22 499.22 m -1, 0 a 1,1 0 1,0 2,0 a 1,1 0 1,0 -2,0 M 339.22 499.22 m -0.5, 0 a 0.5,0.5 0 1,0 1,0 a 0.5,0.5 0 1,0 -1,0  M339.22 499.22 L339.22 499.22 327.22 499.22 M 339.22 505.22 m -1, 0 a 1,1 0 1,0 2,0 a 1,1 0 1,0 -2,0 M 339.22 505.22 m -0.5, 0 a 0.5,0.5 0 1,0 1,0 a 0.5,0.5 0 1,0 -1,0  M339.22 505.22 L339.22 505.22 332.22 499.22 339.22 493.22 M 339.22 493.22 m -1, 0 a 1,1 0 1,0 2,0 a 1,1 0 1,0 -2,0 M 339.22 493.22 m -0.5, 0 a 0.5,0.5 0 1,0 1,0 a 0.5,0.5 0 1,0 -1,0  M327.22 499.22 Q 283.17 499.22, 239.12 384.11 T 151.02 269 M 139.02 269 m -1, 0 a 1,1 0 1,0 2,0 a 1,1 0 1,0 -2,0 M 139.02 269 m -0.5, 0 a 0.5,0.5 0 1,0 1,0 a 0.5,0.5 0 1,0 -1,0  M139.02 269 L139.02 269 151.02 269 M145.02 275 L145.02 275 145.02 263" id="h624278286" class="r"></path><path d="M 339.22 524.22 m -1, 0 a 1,1 0 1,0 2,0 a 1,1 0 1,0 -2,0 M 339.22 524.22 m -0.5, 0 a 0.5,0.5 0 1,0 1,0 a 0.5,0.5 0 1,0 -1,0  M339.22 524.22 L339.22 524.22 327.22 524.22 M 339.22 530.22 m -1, 0 a 1,1 0 1,0 2,0 a 1,1 0 1,0 -2,0 M 339.22 530.22 m -0.5, 0 a 0.5,0.5 0 1,0 1,0 a 0.5,0.5 0 1,0 -1,0  M339.22 530.22 L339.22 530.22 332.22 524.22 339.22 518.22 M 339.22 518.22 m -1, 0 a 1,1 0 1,0 2,0 a 1,1 0 1,0 -2,0 M 339.22 518.22 m -0.5, 0 a 0.5,0.5 0 1,0 1,0 a 0.5,0.5 0 1,0 -1,0  M327.22 524.22 Q 283.17 524.22, 239.12 396.61 T 151.02 269 M 139.02 269 m -1, 0 a 1,1 0 1,0 2,0 a 1,1 0 1,0 -2,0 M 139.02 269 m -0.5, 0 a 0.5,0.5 0 1,0 1,0 a 0.5,0.5 0 1,0 -1,0  M139.02 269 L139.02 269 151.02 269 M145.02 275 L145.02 275 145.02 263" id="h991030597" class="r"></path><path d="M 652.78 124.22 m -1, 0 a 1,1 0 1,0 2,0 a 1,1 0 1,0 -2,0 M 652.78 124.22 m -0.5, 0 a 0.5,0.5 0 1,0 1,0 a 0.5,0.5 0 1,0 -1,0  M652.78 124.22 L652.78 124.22 640.78 124.22 M 652.78 130.22 m -1, 0 a 1,1 0 1,0 2,0 a 1,1 0 1,0 -2,0 M 652.78 130.22 m -0.5, 0 a 0.5,0.5 0 1,0 1,0 a 0.5,0.5 0 1,0 -1,0  M652.78 130.22 L652.78 130.22 645.78 124.22 652.78 118.22 M 652.78 118.22 m -1, 0 a 1,1 0 1,0 2,0 a 1,1 0 1,0 -2,0 M 652.78 118.22 m -0.5, 0 a 0.5,0.5 0 1,0 1,0 a 0.5,0.5 0 1,0 -1,0  M640.78 124.22 Q 603.77 124.22, 566.75 96.61 T 492.71 69 M 480.71 69 m -1, 0 a 1,1 0 1,0 2,0 a 1,1 0 1,0 -2,0 M 480.71 69 m -0.5, 0 a 0.5,0.5 0 1,0 1,0 a 0.5,0.5 0 1,0 -1,0  M480.71 69 L480.71 69 492.71 69 M486.71 75 L486.71 75 486.71 63" id="h1809478117" class="r"></path><path d="M 652.78 149.22 m -1, 0 a 1,1 0 1,0 2,0 a 1,1 0 1,0 -2,0 M 652.78 149.22 m -0.5, 0 a 0.5,0.5 0 1,0 1,0 a 0.5,0.5 0 1,0 -1,0  M652.78 149.22 L652.78 149.22 640.78 149.22 M 652.78 155.22 m -1, 0 a 1,1 0 1,0 2,0 a 1,1 0 1,0 -2,0 M 652.78 155.22 m -0.5, 0 a 0.5,0.5 0 1,0 1,0 a 0.5,0.5 0 1,0 -1,0  M652.78 155.22 L652.78 155.22 645.78 149.22 652.78 143.22 M 652.78 143.22 m -1, 0 a 1,1 0 1,0 2,0 a 1,1 0 1,0 -2,0 M 652.78 143.22 m -0.5, 0 a 0.5,0.5 0 1,0 1,0 a 0.5,0.5 0 1,0 -1,0  M640.78 149.22 Q 610.24 149.22, 579.7 224.22 T 518.63 299.22 M 506.63 299.22 m -1, 0 a 1,1 0 1,0 2,0 a 1,1 0 1,0 -2,0 M 506.63 299.22 m -0.5, 0 a 0.5,0.5 0 1,0 1,0 a 0.5,0.5 0 1,0 -1,0  M506.63 299.22 L506.63 299.22 518.63 299.22 M512.63 305.22 L512.63 305.22 512.63 293.22" id="h883084757" class="r"></path><path d="M 638.33 313.11 m -1, 0 a 1,1 0 1,0 2,0 a 1,1 0 1,0 -2,0 M 638.33 313.11 m -0.5, 0 a 0.5,0.5 0 1,0 1,0 a 0.5,0.5 0 1,0 -1,0  M638.33 313.11 L638.33 313.11 626.33 313.11 M 638.33 319.11 m -1, 0 a 1,1 0 1,0 2,0 a 1,1 0 1,0 -2,0 M 638.33 319.11 m -0.5, 0 a 0.5,0.5 0 1,0 1,0 a 0.5,0.5 0 1,0 -1,0  M638.33 319.11 L638.33 319.11 631.33 313.11 638.33 307.11 M 638.33 307.11 m -1, 0 a 1,1 0 1,0 2,0 a 1,1 0 1,0 -2,0 M 638.33 307.11 m -0.5, 0 a 0.5,0.5 0 1,0 1,0 a 0.5,0.5 0 1,0 -1,0  M626.33 313.11 Q 592.92 313.11, 559.52 191.06 T 492.71 69 M 480.71 69 m -1, 0 a 1,1 0 1,0 2,0 a 1,1 0 1,0 -2,0 M 480.71 69 m -0.5, 0 a 0.5,0.5 0 1,0 1,0 a 0.5,0.5 0 1,0 -1,0  M480.71 69 L480.71 69 492.71 69 M486.71 75 L486.71 75 486.71 63" id="h276556783" class="r"></path><path d="M 638.33 338.11 m -1, 0 a 1,1 0 1,0 2,0 a 1,1 0 1,0 -2,0 M 638.33 338.11 m -0.5, 0 a 0.5,0.5 0 1,0 1,0 a 0.5,0.5 0 1,0 -1,0  M638.33 338.11 L638.33 338.11 626.33 338.11 M 638.33 344.11 m -1, 0 a 1,1 0 1,0 2,0 a 1,1 0 1,0 -2,0 M 638.33 344.11 m -0.5, 0 a 0.5,0.5 0 1,0 1,0 a 0.5,0.5 0 1,0 -1,0  M638.33 344.11 L638.33 344.11 631.33 338.11 638.33 332.11 M 638.33 332.11 m -1, 0 a 1,1 0 1,0 2,0 a 1,1 0 1,0 -2,0 M 638.33 332.11 m -0.5, 0 a 0.5,0.5 0 1,0 1,0 a 0.5,0.5 0 1,0 -1,0  M626.33 338.11 Q 599.41 338.11, 572.48 318.67 T 518.63 299.22 M 506.63 299.22 m -1, 0 a 1,1 0 1,0 2,0 a 1,1 0 1,0 -2,0 M 506.63 299.22 m -0.5, 0 a 0.5,0.5 0 1,0 1,0 a 0.5,0.5 0 1,0 -1,0  M506.63 299.22 L506.63 299.22 518.63 299.22 M512.63 305.22 L512.63 305.22 512.63 293.22" id="h2105621532" class="r"></path><path d="M 638.33 363.11 m -1, 0 a 1,1 0 1,0 2,0 a 1,1 0 1,0 -2,0 M 638.33 363.11 m -0.5, 0 a 0.5,0.5 0 1,0 1,0 a 0.5,0.5 0 1,0 -1,0  M638.33 363.11 L638.33 363.11 626.33 363.11 M 638.33 369.11 m -1, 0 a 1,1 0 1,0 2,0 a 1,1 0 1,0 -2,0 M 638.33 369.11 m -0.5, 0 a 0.5,0.5 0 1,0 1,0 a 0.5,0.5 0 1,0 -1,0  M638.33 369.11 L638.33 369.11 631.33 363.11 638.33 357.11 M 638.33 357.11 m -1, 0 a 1,1 0 1,0 2,0 a 1,1 0 1,0 -2,0 M 638.33 357.11 m -0.5, 0 a 0.5,0.5 0 1,0 1,0 a 0.5,0.5 0 1,0 -1,0  M626.33 363.11 Q 506.26 363.11, 386.18 225.06 T 146.02 87 M 134.02 87 m -1, 0 a 1,1 0 1,0 2,0 a 1,1 0 1,0 -2,0 M 134.02 87 m -0.5, 0 a 0.5,0.5 0 1,0 1,0 a 0.5,0.5 0 1,0 -1,0  M134.02 87 L134.02 87 146.02 87 M140.02 93 L140.02 93 140.02 81" id="h103345308" class="r"></path></g><g class="hrs"></g><g class="ts"><svg width="104.02" height="125" x="30" y="30" id="h3010508784" class="t"><rect height="40" width="104.02" class="th"></rect><text x="13" y="25" class="tht">Teams</text><rect height="85" width="104.02" class="t-bg"></rect><text x="13" y="61" class="tf pk">id<tspan x="91.02" class="ty">serial</tspan></text><path d="M7,14A2,2 0 0,1 5,12A2,2 0 0,1 7,10A2,2 0 0,1 9,12A2,2 0 0,1 7,14M12.65,10C11.83,7.67 9.61,6 7, 6A6, 6 0 0, 0 1, 12A6, 6 0 0, 0 7, 18C9.61, 18 11.83, 16.33 12.65, 14H17V18H21V14H23V10H12.65Z" class="i pk" transform="translate(42.344218749999996, 48) scale(0.65)"></path><text x="13" y="86" class="tf">name<tspan x="91.02" class="ty">text</tspan></text><text x="13" y="111" class="tf">city</text></svg><svg width="104.02" height="100" x="35" y="212" id="h332749422" class="t"><rect height="40" width="104.02" class="th"></rect><text x="13" y="25" class="tht">Referees</text><rect height="60" width="104.02" class="t-bg"></rect><text x="13" y="61" class="tf pk">id<tspan x="91.02" class="ty">serial</tspan></text><path d="M7,14A2,2 0 0,1 5,12A2,2 0 0,1 7,10A2,2 0 0,1 9,12A2,2 0 0,1 7,14M12.65,10C11.83,7.67 9.61,6 7, 6A6, 6 0 0, 0 1, 12A6, 6 0 0, 0 7, 18C9.61, 18 11.83, 16.33 12.65, 14H17V18H21V14H23V10H12.65Z" class="i pk" transform="translate(42.344218749999996, 48) scale(0.65)"></path><text x="13" y="86" class="tf">name<tspan x="91.02" class="ty">text</tspan></text></svg><svg width="197.41" height="150" x="30" y="354" id="h1488401382" class="t"><rect height="40" width="197.41" class="th"></rect><text x="13" y="25" class="tht">Results</text><rect height="110" width="197.41" class="t-bg"></rect><text x="13" y="61" class="tf pk">id<tspan x="184.41" class="ty">serial</tspan></text><path d="M7,14A2,2 0 0,1 5,12A2,2 0 0,1 7,10A2,2 0 0,1 9,12A2,2 0 0,1 7,14M12.65,10C11.83,7.67 9.61,6 7, 6A6, 6 0 0, 0 1, 12A6, 6 0 0, 0 7, 18C9.61, 18 11.83, 16.33 12.65, 14H17V18H21V14H23V10H12.65Z" class="i pk" transform="translate(135.73421875, 48) scale(0.65)"></path><text x="13" y="86" class="tf fk">team_id</text><text x="13" y="111" class="tf">match_id</text><text x="13" y="136" class="tf">result_win_loss_or_draw<tspan x="184.41" class="ty">text</tspan></text></svg><svg width="132.71" height="175" x="348" y="12" id="h4103274130" class="t"><rect height="40" width="132.71" class="th"></rect><text x="13" y="25" class="tht">Players</text><rect height="135" width="132.71" class="t-bg"></rect><text x="13" y="61" class="tf pk">Id<tspan x="119.71000000000001" class="ty">serial</tspan></text><path d="M7,14A2,2 0 0,1 5,12A2,2 0 0,1 7,10A2,2 0 0,1 9,12A2,2 0 0,1 7,14M12.65,10C11.83,7.67 9.61,6 7, 6A6, 6 0 0, 0 1, 12A6, 6 0 0, 0 7, 18C9.61, 18 11.83, 16.33 12.65, 14H17V18H21V14H23V10H12.65Z" class="i pk" transform="translate(71.03421875000001, 48) scale(0.65)"></path><text x="13" y="86" class="tf">name<tspan x="119.71000000000001" class="ty">text</tspan></text><text x="13" y="111" class="tf">birthday<tspan x="119.71000000000001" class="ty">date</tspan></text><text x="13" y="136" class="tf">height<tspan x="119.71000000000001" class="ty">float</tspan></text><text x="13" y="161" class="tf fk">current_team_id</text></svg><svg width="167.41" height="300" x="339.22" y="242.22" id="h3829905542" class="t"><rect height="40" width="167.41" class="th"></rect><text x="13" y="25" class="tht">Matches</text><rect height="260" width="167.41" class="t-bg"></rect><text x="13" y="61" class="tf pk">id<tspan x="154.41" class="ty">serial</tspan></text><path d="M7,14A2,2 0 0,1 5,12A2,2 0 0,1 7,10A2,2 0 0,1 9,12A2,2 0 0,1 7,14M12.65,10C11.83,7.67 9.61,6 7, 6A6, 6 0 0, 0 1, 12A6, 6 0 0, 0 7, 18C9.61, 18 11.83, 16.33 12.65, 14H17V18H21V14H23V10H12.65Z" class="i pk" transform="translate(105.73421875, 48) scale(0.65)"></path><text x="13" y="86" class="tf fk">home_team_id</text><text x="13" y="111" class="tf fk">away_team_id</text><text x="13" y="136" class="tf">location<tspan x="154.41" class="ty">text</tspan></text><text x="13" y="161" class="tf">date<tspan x="154.41" class="ty">date</tspan></text><text x="13" y="186" class="tf">start_time<tspan x="154.41" class="ty">time</tspan></text><text x="13" y="211" class="tf fk">season_id</text><text x="13" y="236" class="tf fk">head_referee_id</text><text x="13" y="261" class="tf fk">assistant_referee_1_id</text><text x="13" y="286" class="tf fk">assistant_referee_2_id</text></svg><svg width="104.02" height="125" x="652.78" y="42.22" id="h2207534861" class="t"><rect height="40" width="104.02" class="th"></rect><text x="13" y="25" class="tht">Goals</text><rect height="85" width="104.02" class="t-bg"></rect><text x="13" y="61" class="tf pk">id<tspan x="91.02" class="ty">serial</tspan></text><path d="M7,14A2,2 0 0,1 5,12A2,2 0 0,1 7,10A2,2 0 0,1 9,12A2,2 0 0,1 7,14M12.65,10C11.83,7.67 9.61,6 7, 6A6, 6 0 0, 0 1, 12A6, 6 0 0, 0 7, 18C9.61, 18 11.83, 16.33 12.65, 14H17V18H21V14H23V10H12.65Z" class="i pk" transform="translate(42.344218749999996, 48) scale(0.65)"></path><text x="13" y="86" class="tf fk">player_id</text><text x="13" y="111" class="tf fk">match_id</text></svg><svg width="104.02" height="150" x="638.33" y="231.11" id="h1247361070" class="t"><rect height="40" width="104.02" class="th"></rect><text x="13" y="25" class="tht">Lineups</text><rect height="110" width="104.02" class="t-bg"></rect><text x="13" y="61" class="tf pk">id<tspan x="91.02" class="ty">serial</tspan></text><path d="M7,14A2,2 0 0,1 5,12A2,2 0 0,1 7,10A2,2 0 0,1 9,12A2,2 0 0,1 7,14M12.65,10C11.83,7.67 9.61,6 7, 6A6, 6 0 0, 0 1, 12A6, 6 0 0, 0 7, 18C9.61, 18 11.83, 16.33 12.65, 14H17V18H21V14H23V10H12.65Z" class="i pk" transform="translate(42.344218749999996, 48) scale(0.65)"></path><text x="13" y="86" class="tf fk">player_id</text><text x="13" y="111" class="tf fk">match_id</text><text x="13" y="136" class="tf fk">team_id</text></svg><svg width="122.72" height="125" x="621.67" y="415.56" id="h3133071897" class="t"><rect height="40" width="122.72" class="th"></rect><text x="13" y="25" class="tht">Season</text><rect height="85" width="122.72" class="t-bg"></rect><text x="13" y="61" class="tf pk">id<tspan x="109.72" class="ty">serial</tspan></text><path d="M7,14A2,2 0 0,1 5,12A2,2 0 0,1 7,10A2,2 0 0,1 9,12A2,2 0 0,1 7,14M12.65,10C11.83,7.67 9.61,6 7, 6A6, 6 0 0, 0 1, 12A6, 6 0 0, 0 7, 18C9.61, 18 11.83, 16.33 12.65, 14H17V18H21V14H23V10H12.65Z" class="i pk" transform="translate(61.04421875, 48) scale(0.65)"></path><text x="13" y="86" class="tf">start_date<tspan x="109.72" class="ty">date</tspan></text><text x="13" y="111" class="tf">end_date<tspan x="109.72" class="ty">date</tspan></text></svg></g></g><text class="qdbd-link" x="10" y="20">www.quickdatabasediagrams.com</text></svg>